<svg width="0" height="0" class="hidden">
    <defs>
        <symbol viewBox="0 0 16 12" id="arrow-left" xmlns="http://www.w3.org/2000/svg"><path d="M0 5.951L5.94 0l1.437 1.463-3.449 3.513H16v2.048H3.928l3.45 3.513L5.94 12 0 6.049V5.95z"/></symbol>
        <symbol viewBox="0 0 16 12" id="arrow-right" xmlns="http://www.w3.org/2000/svg"><path d="M16 5.951L10.06 0 8.623 1.463l3.449 3.513H0v2.048h12.072l-3.45 3.513L10.06 12 16 6.049V5.95z"/></symbol>
        <symbol viewBox="0 0 24 23" id="basket" xmlns="http://www.w3.org/2000/svg"><path d="M21.587 15.3l1.5-10.5c0-.1 0-.3-.1-.4-.1-.1-.2-.1-.4-.1h-17.7l-.7-3.9c0-.2-.2-.4-.5-.4h-2.4c-.3 0-.5.2-.5.5s.3.5.5.5h2l2.5 16.9c0 .2.2.4.5.4h14.7c.3 0 .5-.2.5-.5s-.2-.5-.5-.5h-14.3l-.3-1.6h14.6c.3 0 .5-.1.6-.4zm.4-10l-1.3 9.5h-14.3l-1.4-9.5h17zM8.588 18.8c-1.1 0-1.9.9-1.9 1.9 0 1.1.9 2 1.9 2 1.1 0 1.9-.9 1.9-1.9 0-1.1-.9-2-1.9-2zm.9 1.9c0 .5-.4 1-1 1-.5 0-1-.4-1-1s.4-1 1-1 1 .5 1 1zM18.386 18.8c-1.1 0-1.9.9-1.9 1.9 0 1.1.9 2 1.9 2 1 0 1.9-.9 1.9-1.9 0-1.1-.9-2-1.9-2zm0 2.9c-.5 0-1-.4-1-1 0-.5.4-1 1-1 .5 0 1 .4 1 1s-.5 1-1 1z"/></symbol>
        <symbol viewBox="0 0 24 24" id="burger" xmlns="http://www.w3.org/2000/svg"><path d="M4 6h16v2H4V6zm0 5h16v2H4v-2zm0 5h16v2H4v-2z"/></symbol>
        <symbol viewBox="0 0 22 19" id="favorite" xmlns="http://www.w3.org/2000/svg"><path d="M17.74.423c-2.5-1-5.2-.2-6.9 2.1-1.8-2.3-4.4-3.1-6.9-2-2.4 1-4.7 3.9-3.7 7.9.7 3.6 3.5 6.2 5.8 7.8 2.4 1.7 4.5 2.6 4.7 2.6h.2c.1 0 .2 0 .2-.1.3-.1 2.3-1 4.6-2.6 2.2-1.6 5-4.2 5.8-7.9.9-3.9-1.4-6.8-3.8-7.8zm-.5 1c2.1.8 3.9 3.3 3.1 6.7-1.3 5.8-8.6 9.2-9.6 9.7-1.2-.5-8.3-3.9-9.6-9.7-.7-3.4 1.1-5.8 3.2-6.7.6-.2 1.1-.3 1.7-.3 2 0 3.5 1.4 4.3 2.7.1.1.3.2.4.2.2 0 .3-.1.4-.2 1.2-1.8 3.4-3.5 6.1-2.4z"/></symbol>
        <symbol viewBox="0 0 23 21" id="person" xmlns="http://www.w3.org/2000/svg"><path d="M11.51 14.296c3.8 0 7-3.1 7-7s-3.1-7-7-7-7 3.1-7 7 3.1 7 7 7zm-5.9-6.9c0-3.2 2.6-5.9 5.9-5.9 3.3 0 5.9 2.6 5.9 5.9 0 3.3-2.6 5.9-5.9 5.9-3.3 0-5.9-2.7-5.9-5.9zM21.81 19.396c-3-2.4-6.6-3.6-10.4-3.6-3.8 0-7.3 1.3-10.3 3.6-.2.2-.3.5-.1.8.2.2.5.3.8.1 2.8-2.2 6.1-3.4 9.7-3.4 3.6 0 6.9 1.2 9.7 3.4.1.1.2.1.3.1.2 0 .3-.1.4-.2.2-.3.2-.6-.1-.8z"/></symbol>
        <symbol viewBox="0 0 21 21" id="search" xmlns="http://www.w3.org/2000/svg"><path d="M20.7 19.5l-3.3-3.3c1.4-1.7 2.1-3.9 2.1-6.1 0-5.4-4.4-9.8-9.8-9.8C4.4.3 0 4.7 0 10.1s4.4 9.8 9.8 9.8c2.6 0 5.1-1 6.9-2.9l3.2 3.2c.1.1.2.2.4.2s.3-.1.4-.2c.1-.1.2-.2.2-.4 0-.1-.1-.2-.2-.3zm-2.2-9.4c0 4.8-3.9 8.7-8.7 8.7-4.8 0-8.7-3.9-8.7-8.7 0-4.8 3.9-8.7 8.7-8.7 4.8 0 8.7 3.9 8.7 8.7z"/></symbol>
    </defs>
</svg>
